<svg width="1440" height="777" viewBox="0 0 1440 777" fill="none" xmlns="http://www.w3.org/2000/svg">
<g clip-path="url(#clip0_138_663)">
<rect width="1440" height="777" fill="url(#paint0_linear_138_663)"/>
<path d="M618 697.295L358.192 847.295L-125.798 8.99958L134.01 -141L618 697.295Z" fill="url(#paint1_linear_138_663)"/>
<mask id="path-2-inside-1_138_663" fill="white">
<path d="M1076.28 -206L1595.9 94L1050.01 1039.5L530.399 739.5L1076.28 -206Z"/>
</mask>
<path d="M1076.28 -206L1595.9 94L1050.01 1039.5L530.399 739.5L1076.28 -206Z" fill="url(#paint2_linear_138_663)"/>
<path d="M1595.03 93.5L1049.15 1039L1050.88 1040L1596.77 94.5L1595.03 93.5ZM531.265 740L1077.15 -205.5L1075.42 -206.5L529.533 739L531.265 740Z" fill="white" fill-opacity="0.5" mask="url(#path-2-inside-1_138_663)"/>
<mask id="path-4-inside-2_138_663" fill="white">
<path d="M1169.64 -141.469L1429.44 8.53125L969.808 804.645L710 654.645L1169.64 -141.469Z"/>
</mask>
<path d="M1169.64 -141.469L1429.44 8.53125L969.808 804.645L710 654.645L1169.64 -141.469Z" fill="url(#paint3_linear_138_663)"/>
<path d="M1428.58 8.03125L968.942 804.145L970.674 805.145L1430.31 9.03125L1428.58 8.03125Z" fill="white" mask="url(#path-4-inside-2_138_663)"/>
</g>
<defs>
<linearGradient id="paint0_linear_138_663" x1="720" y1="0" x2="720" y2="777" gradientUnits="userSpaceOnUse">
<stop stop-color="#C4E6F3"/>
<stop offset="1" stop-color="#E7FAFF" stop-opacity="0"/>
</linearGradient>
<linearGradient id="paint1_linear_138_663" x1="423.894" y1="772.295" x2="-60.0961" y2="-66.0004" gradientUnits="userSpaceOnUse">
<stop stop-color="white"/>
<stop offset="1" stop-color="#CFEBF7"/>
</linearGradient>
<linearGradient id="paint2_linear_138_663" x1="1336.09" y1="-56" x2="790.207" y2="889.5" gradientUnits="userSpaceOnUse">
<stop offset="0.161458" stop-color="#DDEFF8"/>
<stop offset="0.838542" stop-color="white" stop-opacity="0"/>
<stop offset="0.9999" stop-color="white" stop-opacity="0"/>
</linearGradient>
<linearGradient id="paint3_linear_138_663" x1="1299.54" y1="-66.4688" x2="839.904" y2="729.645" gradientUnits="userSpaceOnUse">
<stop offset="0.3125" stop-color="#EFF8FE"/>
<stop offset="1" stop-color="white"/>
</linearGradient>
<clipPath id="clip0_138_663">
<rect width="1440" height="777" fill="white"/>
</clipPath>
</defs>
</svg>
