<svg width="61" height="50" viewBox="0 0 61 50" fill="none" xmlns="http://www.w3.org/2000/svg">
<rect width="61" height="50" fill="#2C7DC0"/>
<path d="M28.875 14.75C31.0299 14.75 33.0965 15.606 34.6202 17.1298C36.144 18.6535 37 20.7201 37 22.875C37 24.8875 36.2625 26.7375 35.05 28.1625L35.3875 28.5H36.375L42.625 34.75L40.75 36.625L34.5 30.375V29.3875L34.1625 29.05C32.6882 30.3085 30.8134 30.9999 28.875 31C26.7201 31 24.6535 30.144 23.1298 28.6202C21.606 27.0965 20.75 25.0299 20.75 22.875C20.75 20.7201 21.606 18.6535 23.1298 17.1298C24.6535 15.606 26.7201 14.75 28.875 14.75ZM28.875 17.25C25.75 17.25 23.25 19.75 23.25 22.875C23.25 26 25.75 28.5 28.875 28.5C32 28.5 34.5 26 34.5 22.875C34.5 19.75 32 17.25 28.875 17.25Z" fill="white"/>
</svg>
