<svg width="150" height="100" viewBox="0 0 150 100" fill="none" xmlns="http://www.w3.org/2000/svg">
<g clip-path="url(#clip0_176_82)">
<rect width="150" height="100" fill="#2C7DC0"/>
<path d="M1 100H150V1L1 100Z" fill="#222B63" stroke="#222B63"/>
<path d="M42.668 62.444H40.874C40.913 62.678 40.952 63.328 40.952 63.588C40.952 64.186 40.939 65.798 40.939 67.28C40.939 68.853 41.004 70.66 41.004 71.336C41.004 71.791 40.835 71.895 40.601 71.895C40.263 71.895 39.652 71.544 39.652 71.128C39.652 70.569 40.484 69.867 41.654 69.425C42.668 69.022 43.812 68.788 44.917 68.788C46.048 68.788 46.828 69.295 46.828 70.192C46.828 71.128 45.983 71.661 44.93 71.843C44.488 71.934 43.916 71.934 43.344 71.934L43.929 73.624C44.462 73.572 45.047 73.533 45.645 73.403C47.712 72.896 48.518 71.739 48.518 70.192C48.518 68.398 46.932 67.358 44.93 67.358C43.942 67.358 42.629 67.566 41.472 67.982C39.665 68.619 38.04 69.945 38.04 71.206C38.04 72.584 39.834 73.676 41.095 73.676C41.953 73.676 42.525 73.234 42.525 71.635C42.525 70.881 42.447 68.632 42.447 67.215C42.447 66.006 42.486 64.602 42.551 63.575C42.564 63.25 42.616 62.691 42.668 62.444ZM46.373 63.861L45.658 65.122C46.464 65.512 48.154 66.487 48.778 67.007L49.571 65.681C48.869 65.187 47.361 64.342 46.373 63.861ZM38.391 64.576L38.43 66.149C38.872 66.201 39.379 66.214 40.237 66.214C41.381 66.214 43.474 65.98 44.943 65.642L44.904 64.03C43.565 64.42 41.537 64.667 40.185 64.667C39.717 64.667 39.158 64.667 38.391 64.576ZM54.589 68.229V69.503H57.527V71.05H54.589V72.324H58.983V68.229H54.589ZM53.926 68.229V73.065H55.369V68.229H53.926ZM51.794 64.342V65.408H55.057V64.342H51.794ZM57.826 64.342V65.408H61.115V64.342H57.826ZM60.465 62.457V72.285C60.465 72.519 60.374 72.61 60.127 72.61C59.88 72.61 58.983 72.623 58.229 72.584C58.45 72.987 58.71 73.728 58.762 74.17C59.958 74.17 60.777 74.144 61.323 73.884C61.856 73.624 62.038 73.182 62.038 72.298V62.457H60.465ZM51.924 62.457V63.653H54.576V66.136H51.924V67.332H56.032V62.457H51.924ZM61.31 62.457H56.916V67.345H61.31V66.162H58.398V63.64H61.31V62.457ZM51.027 62.457V74.17H52.574V62.457H51.027ZM66.367 63.718L64.365 63.692C64.456 64.095 64.469 64.654 64.469 65.005C64.469 65.798 64.482 67.332 64.612 68.528C64.976 72.012 66.211 73.286 67.654 73.286C68.694 73.286 69.5 72.506 70.371 70.231L69.058 68.658C68.811 69.685 68.304 71.219 67.68 71.219C66.861 71.219 66.471 69.932 66.289 68.06C66.211 67.111 66.211 66.149 66.211 65.304C66.211 64.94 66.276 64.173 66.367 63.718ZM72.867 64.004L71.216 64.55C72.633 66.162 73.335 69.308 73.53 71.414L75.246 70.738C75.103 68.749 74.102 65.499 72.867 64.004ZM79.25 66.162V67.527H85.776V66.162H79.25ZM79.094 72.337V73.702H85.802V72.337H79.094ZM78.405 68.827V74.196H79.939V70.205H85.087V74.196H86.686V68.827H78.405ZM82.448 63.51C83.579 65.057 85.763 66.825 87.765 67.878C88.038 67.397 88.402 66.864 88.792 66.474C86.699 65.629 84.606 63.978 83.189 61.976H81.564C80.602 63.575 78.509 65.538 76.26 66.63C76.598 66.955 77.027 67.527 77.235 67.891C79.38 66.747 81.382 65.031 82.448 63.51ZM95.643 71.791L96.41 73.351C99.634 72.714 101.285 71.154 101.285 68.515C101.285 66.435 99.699 65.018 97.71 65.018C96.319 65.018 94.668 65.525 93.121 66.994L93.108 68.827C94.382 67.488 95.773 66.539 97.437 66.539C98.737 66.539 99.556 67.475 99.556 68.489C99.556 70.517 97.918 71.44 95.643 71.791ZM92.692 66.136L92.588 66.37L92.562 66.708C91.912 67.722 90.352 69.789 89.533 70.803L90.547 72.233C91.236 71.284 92.393 69.542 92.965 68.71L93.719 66.266C93.94 65.928 94.343 65.291 94.564 64.992L94.044 64.316C93.459 64.511 91.795 64.758 90.976 64.797C90.508 64.823 90.209 64.823 89.845 64.81L90.014 66.487C90.872 66.37 92.107 66.201 92.692 66.136ZM92.536 63.627C92.536 64.147 92.25 67.787 92.211 68.944C92.172 70.569 92.159 71.44 92.146 72.701C92.146 72.909 92.133 73.39 92.107 73.663H93.888C93.862 73.377 93.81 72.896 93.797 72.662C93.719 71.453 93.719 70.348 93.719 69.295C93.719 66.968 94.148 63.562 94.369 62.522L92.471 62.47C92.549 62.873 92.536 63.263 92.536 63.627ZM111.945 62.808H110.19C110.229 63.055 110.281 63.666 110.281 64.004C110.281 64.771 110.281 65.525 110.281 66.201C110.255 67.098 110.229 68.034 110.164 68.528C110.125 68.788 110.008 68.827 109.761 68.827C109.501 68.827 108.955 68.762 108.552 68.671L108.526 70.101C108.968 70.179 110.021 70.296 110.476 70.296C111.139 70.296 111.477 70.127 111.62 69.438C111.75 68.775 111.789 67.371 111.815 66.214C111.841 65.551 111.841 64.81 111.867 63.926C111.88 63.588 111.906 63.016 111.945 62.808ZM106.823 63.198H104.99C105.055 63.653 105.094 64.095 105.094 64.641C105.094 65.421 105.081 69.373 105.107 70.491C105.159 72.74 105.575 73.455 108.929 73.455C110.177 73.455 111.763 73.338 112.634 73.247L112.699 71.466C111.737 71.648 110.086 71.804 108.812 71.804C106.862 71.804 106.758 71.518 106.719 70.231C106.693 69.165 106.745 65.733 106.745 64.55C106.745 63.991 106.771 63.627 106.823 63.198ZM102.481 66.136L102.65 67.787C103.001 67.735 103.807 67.618 104.21 67.566C105.718 67.397 110.775 66.851 112.803 66.786C113.141 66.786 113.83 66.76 114.064 66.773V65.187C113.674 65.213 113.167 65.252 112.816 65.278C110.307 65.434 105.419 65.915 104.106 66.032C103.443 66.11 102.845 66.136 102.481 66.136Z" fill="white"/>
<path d="M37.982 49.234C36.734 49.234 35.6247 48.9913 34.654 48.506C33.7007 48.0033 32.9553 47.3013 32.418 46.4C31.898 45.4813 31.638 44.4327 31.638 43.254V36.52C31.638 35.3413 31.898 34.31 32.418 33.426C32.9553 32.5247 33.7007 31.8313 34.654 31.346C35.6247 30.8433 36.734 30.592 37.982 30.592C39.23 30.592 40.3307 30.8347 41.284 31.32C42.2373 31.788 42.974 32.4553 43.494 33.322C44.0313 34.1887 44.3 35.194 44.3 36.338V36.364C44.3 36.4507 44.274 36.52 44.222 36.572C44.17 36.624 44.1093 36.65 44.04 36.65L42.064 36.754C41.8907 36.754 41.804 36.676 41.804 36.52V36.442C41.804 35.3327 41.4573 34.44 40.764 33.764C40.0707 33.088 39.1433 32.75 37.982 32.75C36.8207 32.75 35.8847 33.088 35.174 33.764C34.4807 34.44 34.134 35.3327 34.134 36.442V43.358C34.134 44.4673 34.4807 45.36 35.174 46.036C35.8847 46.712 36.8207 47.05 37.982 47.05C39.1433 47.05 40.0707 46.712 40.764 46.036C41.4573 45.36 41.804 44.4673 41.804 43.358V43.306C41.804 43.15 41.8907 43.072 42.064 43.072L44.04 43.176C44.2133 43.176 44.3 43.2627 44.3 43.436C44.3 44.58 44.0313 45.594 43.494 46.478C42.974 47.3447 42.2373 48.0207 41.284 48.506C40.3307 48.9913 39.23 49.234 37.982 49.234ZM52.9956 49.208C51.7129 49.208 50.5949 48.8873 49.6416 48.246C48.6882 47.5873 48.0209 46.6773 47.6396 45.516C47.3276 44.58 47.1716 43.5227 47.1716 42.344C47.1716 41.1133 47.3189 40.0733 47.6136 39.224C47.9949 38.08 48.6622 37.1873 49.6156 36.546C50.5689 35.8873 51.7042 35.558 53.0216 35.558C54.2696 35.558 55.3529 35.8873 56.2716 36.546C57.2076 37.1873 57.8749 38.0713 58.2736 39.198C58.5856 40.082 58.7416 41.122 58.7416 42.318C58.7416 43.5313 58.5856 44.5973 58.2736 45.516C57.8922 46.6773 57.2336 47.5873 56.2976 48.246C55.3616 48.8873 54.2609 49.208 52.9956 49.208ZM52.9956 47.05C53.6889 47.05 54.2956 46.8593 54.8156 46.478C55.3356 46.0793 55.7082 45.5247 55.9336 44.814C56.1242 44.1553 56.2196 43.3407 56.2196 42.37C56.2196 41.3993 56.1329 40.5933 55.9596 39.952C55.7342 39.2413 55.3616 38.6953 54.8416 38.314C54.3216 37.9153 53.6889 37.716 52.9436 37.716C52.2329 37.716 51.6176 37.9153 51.0976 38.314C50.5776 38.6953 50.2049 39.2413 49.9796 39.952C49.7889 40.5587 49.6936 41.3647 49.6936 42.37C49.6936 43.3753 49.7889 44.19 49.9796 44.814C50.1876 45.5247 50.5516 46.0793 51.0716 46.478C51.6089 46.8593 52.2502 47.05 52.9956 47.05ZM67.9115 35.584C69.3328 35.584 70.4595 36 71.2915 36.832C72.1235 37.6467 72.5395 38.756 72.5395 40.16V48.74C72.5395 48.9133 72.4528 49 72.2795 49H70.3035C70.1301 49 70.0435 48.9133 70.0435 48.74V40.654C70.0435 39.7873 69.7921 39.0853 69.2895 38.548C68.7868 38.0107 68.1195 37.742 67.2875 37.742C66.4728 37.742 65.8055 38.0107 65.2855 38.548C64.7655 39.0853 64.5055 39.7787 64.5055 40.628V48.74C64.5055 48.9133 64.4188 49 64.2455 49H62.2695C62.0961 49 62.0095 48.9133 62.0095 48.74V36.026C62.0095 35.8527 62.0961 35.766 62.2695 35.766H64.2455C64.4188 35.766 64.5055 35.8527 64.5055 36.026V36.962C64.5055 36.9967 64.5141 37.0227 64.5315 37.04C64.5661 37.0573 64.5921 37.0487 64.6095 37.014C65.3548 36.0607 66.4555 35.584 67.9115 35.584ZM82.6273 37.56C82.6273 37.7333 82.5406 37.82 82.3673 37.82H79.5593C79.4899 37.82 79.4553 37.8547 79.4553 37.924V44.814C79.4553 45.542 79.6199 46.0707 79.9493 46.4C80.2786 46.712 80.7899 46.868 81.4833 46.868H82.2373C82.4106 46.868 82.4973 46.9547 82.4973 47.128V48.74C82.4973 48.9133 82.4106 49 82.2373 49C81.6826 49.0347 81.2839 49.052 81.0413 49.052C79.7239 49.052 78.7273 48.818 78.0513 48.35C77.3926 47.8647 77.0633 46.9807 77.0633 45.698V37.924C77.0633 37.8547 77.0286 37.82 76.9593 37.82H75.3733C75.1999 37.82 75.1133 37.7333 75.1133 37.56V36.026C75.1133 35.8527 75.1999 35.766 75.3733 35.766H76.9593C77.0286 35.766 77.0633 35.7313 77.0633 35.662V32.594C77.0633 32.4207 77.1499 32.334 77.3233 32.334H79.1953C79.3686 32.334 79.4553 32.4207 79.4553 32.594V35.662C79.4553 35.7313 79.4899 35.766 79.5593 35.766H82.3673C82.5406 35.766 82.6273 35.8527 82.6273 36.026V37.56ZM90.5349 35.558C91.5922 35.558 92.5109 35.7487 93.2909 36.13C94.0882 36.494 94.6949 37.014 95.1109 37.69C95.5442 38.3487 95.7609 39.1027 95.7609 39.952V48.74C95.7609 48.9133 95.6742 49 95.5009 49H93.5249C93.3516 49 93.2649 48.9133 93.2649 48.74V47.804C93.2649 47.7173 93.2216 47.7 93.1349 47.752C92.6842 48.22 92.1296 48.584 91.4709 48.844C90.8296 49.0867 90.1102 49.208 89.3129 49.208C88.0302 49.208 86.9642 48.8873 86.1149 48.246C85.2829 47.5873 84.8669 46.5993 84.8669 45.282C84.8669 43.93 85.3349 42.8727 86.2709 42.11C87.2242 41.33 88.5502 40.94 90.2489 40.94H93.1609C93.2302 40.94 93.2649 40.9053 93.2649 40.836V40.134C93.2649 39.3713 93.0396 38.782 92.5889 38.366C92.1556 37.9327 91.4882 37.716 90.5869 37.716C89.8589 37.716 89.2609 37.8633 88.7929 38.158C88.3422 38.4353 88.0649 38.8167 87.9609 39.302C87.9089 39.4753 87.8049 39.5533 87.6489 39.536L85.5429 39.25C85.3696 39.2153 85.2916 39.146 85.3089 39.042C85.4476 38.0193 85.9936 37.1873 86.9469 36.546C87.9002 35.8873 89.0962 35.558 90.5349 35.558ZM89.8589 47.102C90.7776 47.102 91.5749 46.8593 92.2509 46.374C92.9269 45.8887 93.2649 45.2733 93.2649 44.528V42.994C93.2649 42.9247 93.2302 42.89 93.1609 42.89H90.7169C89.6942 42.89 88.8796 43.0893 88.2729 43.488C87.6662 43.8867 87.3629 44.4413 87.3629 45.152C87.3629 45.7933 87.5882 46.2787 88.0389 46.608C88.5069 46.9373 89.1136 47.102 89.8589 47.102ZM104.435 49.208C103.117 49.208 101.991 48.8787 101.055 48.22C100.119 47.544 99.4772 46.634 99.1305 45.49C98.8705 44.6927 98.7405 43.644 98.7405 42.344C98.7405 41.148 98.8705 40.0993 99.1305 39.198C99.4772 38.0887 100.119 37.2047 101.055 36.546C102.008 35.8873 103.135 35.558 104.435 35.558C105.735 35.558 106.87 35.8873 107.841 36.546C108.811 37.2047 109.444 38.0367 109.739 39.042C109.843 39.3193 109.912 39.6053 109.947 39.9C109.947 40.0387 109.869 40.1253 109.713 40.16L107.763 40.446H107.711C107.589 40.446 107.503 40.368 107.451 40.212L107.373 39.796C107.234 39.2067 106.896 38.7127 106.359 38.314C105.821 37.9153 105.171 37.716 104.409 37.716C103.663 37.716 103.031 37.9153 102.511 38.314C101.991 38.7127 101.653 39.2413 101.497 39.9C101.341 40.524 101.263 41.3473 101.263 42.37C101.263 43.3753 101.341 44.19 101.497 44.814C101.67 45.5073 102.008 46.0533 102.511 46.452C103.031 46.8507 103.663 47.05 104.409 47.05C105.171 47.05 105.821 46.8507 106.359 46.452C106.913 46.0533 107.26 45.5333 107.399 44.892C107.416 44.8747 107.416 44.8573 107.399 44.84C107.399 44.8053 107.407 44.7793 107.425 44.762V44.658C107.477 44.5193 107.572 44.4673 107.711 44.502L109.661 44.814C109.799 44.8487 109.869 44.918 109.869 45.022V45.126C109.869 45.282 109.825 45.4727 109.739 45.698C109.444 46.7553 108.811 47.6047 107.841 48.246C106.87 48.8873 105.735 49.208 104.435 49.208ZM119.342 37.56C119.342 37.7333 119.255 37.82 119.082 37.82H116.274C116.205 37.82 116.17 37.8547 116.17 37.924V44.814C116.17 45.542 116.335 46.0707 116.664 46.4C116.993 46.712 117.505 46.868 118.198 46.868H118.952C119.125 46.868 119.212 46.9547 119.212 47.128V48.74C119.212 48.9133 119.125 49 118.952 49C118.397 49.0347 117.999 49.052 117.756 49.052C116.439 49.052 115.442 48.818 114.766 48.35C114.107 47.8647 113.778 46.9807 113.778 45.698V37.924C113.778 37.8547 113.743 37.82 113.674 37.82H112.088C111.915 37.82 111.828 37.7333 111.828 37.56V36.026C111.828 35.8527 111.915 35.766 112.088 35.766H113.674C113.743 35.766 113.778 35.7313 113.778 35.662V32.594C113.778 32.4207 113.865 32.334 114.038 32.334H115.91C116.083 32.334 116.17 32.4207 116.17 32.594V35.662C116.17 35.7313 116.205 35.766 116.274 35.766H119.082C119.255 35.766 119.342 35.8527 119.342 36.026V37.56Z" fill="white"/>
</g>
<defs>
<clipPath id="clip0_176_82">
<rect width="150" height="100" fill="white"/>
</clipPath>
</defs>
</svg>
