<svg width="1440" height="160" viewBox="0 0 1440 160" fill="none" xmlns="http://www.w3.org/2000/svg">
<rect width="1440" height="90" transform="translate(0 70)" fill="#222B63"/>
<path d="M637.632 123.18C641.232 123.18 644.328 120.57 644.328 116.376C644.328 112.2 641.232 109.644 637.632 109.644C634.05 109.644 630.954 112.182 630.954 116.376C630.954 120.57 634.05 123.18 637.632 123.18ZM637.632 122.064C634.608 122.064 632.196 119.796 632.196 116.376C632.196 112.974 634.608 110.76 637.632 110.76C640.656 110.76 643.068 112.974 643.068 116.376C643.068 119.796 640.656 122.064 637.632 122.064ZM637.848 120.426C638.964 120.426 639.792 119.958 640.566 119.328L639.684 118.086C639.144 118.518 638.676 118.842 637.92 118.842C636.696 118.842 635.922 117.906 635.922 116.394C635.922 115.08 636.678 114.072 638.028 114.072C638.622 114.072 639.054 114.342 639.522 114.828L640.53 113.676C639.882 113.01 639.108 112.488 637.866 112.488C635.832 112.488 633.978 114.018 633.978 116.394C633.978 118.878 635.634 120.426 637.848 120.426ZM646.031 123H654.959V120.768H652.043C651.413 120.768 650.531 120.858 649.865 120.93C652.241 118.446 654.347 116.088 654.347 113.838C654.347 111.372 652.655 109.788 650.153 109.788C648.335 109.788 647.129 110.49 645.905 111.804L647.363 113.244C648.047 112.524 648.821 111.858 649.811 111.858C651.089 111.858 651.791 112.65 651.791 113.964C651.791 115.908 649.505 118.158 646.031 121.488V123ZM661.203 123.252C663.921 123.252 665.703 120.876 665.703 116.466C665.703 112.074 663.921 109.788 661.203 109.788C658.449 109.788 656.685 112.056 656.685 116.466C656.685 120.876 658.449 123.252 661.203 123.252ZM661.203 121.182C660.051 121.182 659.187 120.084 659.187 116.466C659.187 112.848 660.051 111.84 661.203 111.84C662.355 111.84 663.201 112.848 663.201 116.466C663.201 120.084 662.355 121.182 661.203 121.182ZM667.266 123H676.194V120.768H673.278C672.648 120.768 671.766 120.858 671.1 120.93C673.476 118.446 675.582 116.088 675.582 113.838C675.582 111.372 673.89 109.788 671.388 109.788C669.57 109.788 668.364 110.49 667.14 111.804L668.598 113.244C669.282 112.524 670.056 111.858 671.046 111.858C672.324 111.858 673.026 112.65 673.026 113.964C673.026 115.908 670.74 118.158 667.266 121.488V123ZM677.883 123H686.811V120.768H683.895C683.265 120.768 682.383 120.858 681.717 120.93C684.093 118.446 686.199 116.088 686.199 113.838C686.199 111.372 684.507 109.788 682.005 109.788C680.187 109.788 678.981 110.49 677.757 111.804L679.215 113.244C679.899 112.524 680.673 111.858 681.663 111.858C682.941 111.858 683.643 112.65 683.643 113.964C683.643 115.908 681.357 118.158 677.883 121.488V123ZM695.8 123H698.968L703.054 109.68H700.336L698.608 116.16C698.212 117.654 697.924 118.968 697.492 120.48H697.402C696.988 118.968 696.682 117.654 696.268 116.16L694.522 109.68H691.714L695.8 123ZM709.598 123.252C713.126 123.252 715.538 120.624 715.538 116.286C715.538 111.966 713.126 109.446 709.598 109.446C706.052 109.446 703.64 111.948 703.64 116.286C703.64 120.624 706.052 123.252 709.598 123.252ZM709.598 120.948C707.6 120.948 706.358 119.13 706.358 116.286C706.358 113.442 707.6 111.732 709.598 111.732C711.578 111.732 712.838 113.442 712.838 116.286C712.838 119.13 711.578 120.948 709.598 120.948ZM719.898 123H722.544V118.14L726.558 109.68H723.786L722.472 112.938C722.076 113.928 721.68 114.864 721.266 115.89H721.194C720.798 114.864 720.438 113.928 720.042 112.938L718.71 109.68H715.884L719.898 118.14V123ZM725.94 123H728.64L730.548 116.07C730.944 114.684 731.322 113.154 731.682 111.714H731.754C732.132 113.136 732.51 114.684 732.906 116.07L734.814 123H737.604L733.338 109.68H730.206L725.94 123ZM728.586 119.58H734.922V117.528H728.586V119.58ZM744.606 123.252C746.442 123.252 748.026 122.55 748.926 121.65V115.656H744.174V117.834H746.55V120.462C746.172 120.768 745.524 120.948 744.876 120.948C742.266 120.948 740.934 119.22 740.934 116.304C740.934 113.46 742.464 111.732 744.696 111.732C745.884 111.732 746.64 112.218 747.306 112.848L748.71 111.138C747.846 110.274 746.514 109.446 744.606 109.446C741.06 109.446 738.216 112.002 738.216 116.394C738.216 120.84 740.988 123.252 744.606 123.252ZM751.784 123H760.154V120.768H754.448V117.222H759.11V114.972H754.448V111.894H759.956V109.68H751.784V123ZM762.859 123H765.523V117.978H767.485C770.275 117.978 772.489 116.682 772.489 113.712C772.489 110.652 770.275 109.68 767.485 109.68H762.859V123ZM765.523 115.872V111.804H767.233C768.961 111.804 769.897 112.29 769.897 113.712C769.897 115.134 768.961 115.872 767.233 115.872H765.523ZM770.095 123H773.065L768.853 115.62L766.999 117.294L770.095 123ZM779.206 123H781.87V109.68H779.206V123ZM784.932 123H787.578V116.07C788.316 115.35 788.838 114.954 789.666 114.954C790.638 114.954 791.088 115.476 791.088 117.06V123H793.734V116.718C793.734 114.198 792.78 112.686 790.62 112.686C789.252 112.686 788.208 113.406 787.344 114.27H787.29L787.074 112.938H784.932V123ZM800.729 123.252C801.845 123.252 803.087 122.874 804.041 122.046L802.997 120.3C802.439 120.75 801.755 121.11 801.017 121.11C799.577 121.11 798.533 119.868 798.533 117.978C798.533 116.07 799.559 114.846 801.125 114.846C801.665 114.846 802.151 115.062 802.655 115.494L803.897 113.802C803.159 113.154 802.223 112.686 800.963 112.686C798.227 112.686 795.833 114.63 795.833 117.978C795.833 121.308 797.957 123.252 800.729 123.252ZM807.449 123.252C808.385 123.252 809.105 122.514 809.105 121.524C809.105 120.534 808.385 119.814 807.449 119.814C806.495 119.814 805.811 120.534 805.811 121.524C805.811 122.514 806.495 123.252 807.449 123.252Z" fill="white"/>
<rect x="1335" width="99" height="99" transform="rotate(45 1335 0)" fill="#222B63"/>
<path fill-rule="evenodd" clip-rule="evenodd" d="M1345.21 52.1912C1345.34 52.3214 1345.49 52.4246 1345.66 52.4951C1345.83 52.5655 1346.02 52.6018 1346.2 52.6018C1346.38 52.6018 1346.57 52.5655 1346.74 52.4951C1346.91 52.4246 1347.06 52.3214 1347.19 52.1912C1347.32 52.061 1347.42 51.9065 1347.5 51.7364C1347.57 51.5664 1347.6 51.3841 1347.6 51.2C1347.6 51.0159 1347.57 50.8336 1347.5 50.6636C1347.42 50.4935 1347.32 50.339 1347.19 50.2088L1335.99 39.0088C1335.86 38.8784 1335.71 38.775 1335.54 38.7044C1335.37 38.6338 1335.18 38.5975 1335 38.5975C1334.82 38.5975 1334.63 38.6338 1334.46 38.7044C1334.29 38.775 1334.14 38.8784 1334.01 39.0088L1322.81 50.2088C1322.55 50.4717 1322.4 50.8282 1322.4 51.2C1322.4 51.5718 1322.55 51.9283 1322.81 52.1912C1323.07 52.4541 1323.43 52.6018 1323.8 52.6018C1324.17 52.6018 1324.53 52.4541 1324.79 52.1912L1335 41.9796L1345.21 52.1912ZM1345.21 68.9912C1345.34 69.1214 1345.49 69.2246 1345.66 69.2951C1345.83 69.3655 1346.02 69.4018 1346.2 69.4018C1346.38 69.4018 1346.57 69.3655 1346.74 69.2951C1346.91 69.2246 1347.06 69.1214 1347.19 68.9912C1347.32 68.861 1347.42 68.7065 1347.5 68.5364C1347.57 68.3664 1347.6 68.1841 1347.6 68C1347.6 67.8159 1347.57 67.6336 1347.5 67.4636C1347.42 67.2935 1347.32 67.139 1347.19 67.0088L1335.99 55.8088C1335.86 55.6784 1335.71 55.575 1335.54 55.5044C1335.37 55.4338 1335.18 55.3975 1335 55.3975C1334.82 55.3975 1334.63 55.4338 1334.46 55.5044C1334.29 55.575 1334.14 55.6784 1334.01 55.8088L1322.81 67.0088C1322.55 67.2717 1322.4 67.6282 1322.4 68C1322.4 68.3718 1322.55 68.7283 1322.81 68.9912C1323.07 69.2541 1323.43 69.4018 1323.8 69.4018C1324.17 69.4018 1324.53 69.2541 1324.79 68.9912L1335 58.7796L1345.21 68.9912Z" fill="white"/>
</svg>
